<svg width="0" height="0" style="position:absolute"><symbol viewBox="0 0 24 25" id="arrow" xmlns="http://www.w3.org/2000/svg"><path d="M15.667 5.5c0 .742.672 1.85 1.352 2.78.874 1.2 1.92 2.247 3.117 3.046.899.6 1.988 1.174 2.864 1.174m0 0c-.876 0-1.966.575-2.864 1.174-1.198.8-2.243 1.847-3.117 3.045-.68.931-1.352 2.041-1.352 2.781m7.333-7H1" stroke="currentColor" stroke-width="2"/></symbol><symbol viewBox="0 0 38 38" id="arrow-top-right" xmlns="http://www.w3.org/2000/svg"><path fill-rule="evenodd" clip-rule="evenodd" d="M11.653 1.583h-5.17l3.656 3.656 5.168 5.169-12.21 12.21-1.515 1.515 1.514 1.514 9.255 9.255 1.514 1.514 1.515-1.514 12.21-12.211 5.17 5.168 3.655 3.656V1.583H11.653Z"/></symbol></svg>